#N canvas 827 239 527 327 12;
#X obj 24 56;
#X text 68 54 Dit is een leeg object - druk op 'n' om een object te maken en typ welk object je wil maken, f 77;
#X obj 70 291 nbx 4 18 -1e+37 1e+37 0 0 empty empty empty 0 -8 0 10 #e4e4e4 #373737 #373737 0 256;
#X text 77 593 houd command ingedrukt en klik ergens op het scherm voor lock-modus - dan kan je knoppen indrukken en sliders bewegen;
#X obj 571 183 osc~;
#X text 70 129 objecten met oranje bolletjes zijn audio-objecten \, objecten met blauwe bolletjes zijn data-objecten (voor midi bijvoorbeeld) - objecten met beide kleuren hebben een audio-deel en een data-deel, f 77;
#X obj 113 183 dac~;
#X obj 294 183 metro 500;
#X text 70 181 audio:;
#X text 250 181 data;
#X msg 70 319 4, f 7;
#X text 68 84 Als je een bestaand object gemaakt hebt kan je deze verbinden met een ander object via de blauwe en oranje bolletjes (klik en sleep van het ene naar het andere bolletje), f 77;
#X obj 86 347 vsl 17 128 0 127 0 0 empty empty empty 0 -9 0 10 #e4e4e4 #4d4d4d #373737 0 1;
#X obj 78 492 tgl 25 0 empty empty empty 17 7 0 10 #e4e4e4 #4d4d4d #373737 0 1;
#X text 520 181 beide;
#X text 113 402 dit is een slider - daarmee kan je waardes instellen (sneltoets: s);
#X text 114 289 dit is een number box - in lock-modus kan je het nummer aanpassen (sneltoets: i), f 72;
#X text 124 317 dit is een message - in lock modus kan je hierop klikken (sneltoets: m);
#X text 113 498 dit is een toggle \, daarmee zet je iets aan of uit (sneltoets: t);
#X obj 80 542 bng 25 250 50 0 empty empty empty 17 7 0 10 #e4e4e4 #4d4d4d #373737;
#X text 105 541 dit is een button \, daarmee stuur je een 'bang' - een trigger die iets in gang zet (sneltoets: b);
#X text 882 54 Uitdaging 1: maak een patch die elke 500 miliseconden een midi-noot afspeelt tussen de 48 en 60 Gebruik daarvoor de volgende objecten:;
#X text 953 138 + telt iets op bij een waarde;
#X obj 913 139 +;
#X text 955 99 Hier komt elke 100ms een 'bang' uit \, een trigger die iets in gang zet, f 75;
#X obj 880 100 metro 100;
#X obj 880 171 random 10;
#X text 955 170 kiest een willekeurig getal van 0 tot en met 10 (als je 120 invult komt er een getal uit tussen 0 en 119 \, begint dus altijd bij 0);
#X obj 836 222 makenote 127 500;
#X text 965 222 maak een midinoot met een velocity van 127 (amplitude) en een duur van 500ms;
#X obj 903 277 noteout;
#X text 965 275 speel de noot af;
#X text 889 387 Uitdaging 2: maak het geluid van de zee na. Gebruik de volgende objecten:;
#X obj 895 452 osc~ 0.05;
#X text 965 451 Sinus-oscillator;
#X obj 896 502 noise~;
#X text 965 501 ruis;
#X obj 897 539 *~ 125;
#X text 965 538 vermenigvuldiger;
#X obj 897 582 gain~ 1 0 20 0 0;
#A saved;
#X text 929 613 volumecontroler - maak een nieuwe object en typ: gain~;
#X obj 897 708 dac~;
#X text 941 706 Dit is de audio-output;
#X obj 897 740 lores~ 500 0.9, f 20;
#X text 1055 741 filter;
